<?xml version="1.0" encoding="UTF-8" standalone="no"?>
<svg
   id="bcc3eb47-7a16-46ed-87e5-3206e54d1d39"
   data-name="Layer 1"
   width="248.7504"
   height="33.952141"
   viewBox="-0.014 305.186 823.48108 39.472419"
   version="1.1"
   sodipodi:docname="plant_illustration.svg"
   inkscape:version="1.2 (dc2aeda, 2022-05-15)"
   inkscape:export-filename="plant_illustration_v3.svg"
   inkscape:export-xdpi="96"
   inkscape:export-ydpi="96"
   xmlns:inkscape="http://www.inkscape.org/namespaces/inkscape"
   xmlns:sodipodi="http://sodipodi.sourceforge.net/DTD/sodipodi-0.dtd"
   xmlns="http://www.w3.org/2000/svg"
   xmlns:svg="http://www.w3.org/2000/svg"><defs
   id="defs13" />
<sodipodi:namedview
   id="namedview11"
   pagecolor="#ffffff"
   bordercolor="#000000"
   borderopacity="0.25"
   inkscape:showpageshadow="2"
   inkscape:pageopacity="0.0"
   inkscape:pagecheckerboard="0"
   inkscape:deskcolor="#d1d1d1"
   showgrid="false"
   inkscape:zoom="13.550242"
   inkscape:cx="36.309315"
   inkscape:cy="21.807729"
   inkscape:window-width="1615"
   inkscape:window-height="979"
   inkscape:window-x="2390"
   inkscape:window-y="115"
   inkscape:window-maximized="0"
   inkscape:current-layer="bcc3eb47-7a16-46ed-87e5-3206e54d1d39" />
<path
   id="b8e1c32d-683f-4c0b-b143-7b79b01ef2c4"
   data-name="Path 438"
   d="m 31.757217,332.78497 a 24.263222,24.21459 0 0 0 23.42966,-4.11877 c 8.206213,-6.87441 10.779586,-18.196 12.872486,-28.68191 l 6.192173,-31.01657 -12.963686,8.90837 c -9.323336,6.40641 -18.856089,13.01866 -25.310882,22.29785 -6.454772,9.27919 -9.270797,21.94707 -4.086096,31.988"
   fill="#e5e5e5"
   style="stroke-width:1.001" />
<path
   id="b345d9b4-9c4f-41f9-9568-a0ba3758b02e"
   data-name="Path 439"
   d="m 33.758918,372.49553 c -1.631641,-11.86368 -3.310435,-23.88078 -2.163155,-35.87167 1.016695,-10.64932 4.272295,-21.0488 10.900168,-29.57938 a 49.305105,49.20628 0 0 1 12.649996,-11.44039 c 1.2647,-0.79647 2.42899,1.20354 1.16968,1.997 a 46.873445,46.77949 0 0 0 -18.541639,22.32562 c -4.03668,10.24607 -4.68485,21.41582 -3.98954,32.3003 0.42029,6.58218 1.31339,13.1212 2.21033,19.65251 a 1.2005766,1.19817 0 0 1 -0.80963,1.42251 1.1658166,1.16348 0 0 1 -1.4254,-0.808 z"
   fill="#000000"
   style="stroke-width:1.001" />
<path
   id="f718468a-ef9d-47fd-af88-cc844d7fba89"
   data-name="Path 442"
   d="m 45.503481,353.45908 a 17.860911,17.82511 0 0 0 15.562649,8.01862 c 7.880193,-0.37318 14.446986,-5.85973 20.357959,-11.07027 l 17.487029,-15.4088 -11.573056,-0.5528 c -8.322893,-0.39784 -16.860559,-0.771 -24.787862,1.79338 -7.927313,2.56438 -15.238106,8.72638 -16.687426,16.9154"
   fill="#e5e5e5"
   style="stroke-width:1.001" />
<path
   id="be0f511b-71c0-458c-8c37-97c17312c758"
   data-name="Path 443"
   d="M 29.146713,379.31522 C 37.002158,365.4438 46.113074,350.02728 62.39416,345.0997 a 37.100245,37.02588 0 0 1 13.983486,-1.441 c 1.48489,0.128 1.11404,2.41174 -0.36776,2.28453 a 34.467415,34.39833 0 0 0 -22.316359,5.89215 c -6.292523,4.27454 -11.192186,10.21756 -15.338539,16.51907 -2.5402,3.86051 -4.81547,7.88445 -7.090649,11.903 -0.727019,1.28447 -2.853111,0.35694 -2.117626,-0.94223 z"
   fill="#000000"
   style="stroke-width:1.001" />
<path
   d="M 824.11258,381.121 H 189.63817 c -0.77527,0 -1.2596,-0.834 -0.87193,-1.5 0.18021,-0.31 0.51247,-0.5 0.87193,-0.5 h 634.47441 c 0.77529,0 1.25961,0.833 0.87194,1.5 -0.18021,0.309 -0.51247,0.5 -0.87194,0.5 z"
   fill="#3f3d56"
   id="path6"
   style="stroke-width:1.00342" />


 --&gt;
  <path
   d="M 191.36959,381.12075 H 0.98800843 a 1.0020084,1 0 0 1 0,-2 H 191.36959 a 1.0020084,1 0 0 1 0,2 z"
   fill="#3f3d56"
   id="path8"
   style="stroke-width:1.001" />
</svg>
