<?xml version="1.0" encoding="utf-8"?>
<svg id="bcc3eb47-7a16-46ed-87e5-3206e54d1d39" data-name="Layer 1" width="177" height="100" viewBox="-0.014 305.186 926.932 116.259" xmlns="http://www.w3.org/2000/svg">
  <path id="b8e1c32d-683f-4c0b-b143-7b79b01ef2c4" data-name="Path 438" d="M360.60136,612.13066a24.21459,24.21459,0,0,0,23.38269-4.11877c8.18977-6.87441,10.758-18.196,12.8467-28.68191l6.17973-31.01657-12.9377,8.90837c-9.30465,6.40641-18.81826,13.01866-25.26011,22.29785s-9.25223,21.94707-4.07792,31.988" transform="translate(-261.5 -239.27794)" fill="#e5e5e5"/>
  <path id="b345d9b4-9c4f-41f9-9568-a0ba3758b02e" data-name="Path 439" d="M362.59907,651.84122c-1.62839-11.86368-3.30382-23.88078-2.15884-35.87167,1.01467-10.64932,4.26373-21.0488,10.87831-29.57938a49.20628,49.20628,0,0,1,12.62466-11.44039c1.26215-.79647,2.42409,1.20354,1.16733,1.997a46.77949,46.77949,0,0,0-18.50446,22.32562c-4.02858,10.24607-4.67545,21.41582-3.98154,32.3003.41944,6.58218,1.31074,13.1212,2.20588,19.65251a1.19817,1.19817,0,0,1-.808,1.42251,1.16348,1.16348,0,0,1-1.42253-.808Z" transform="translate(-261.5 -239.27794)" fill="#000000"/>
  <path id="f718468a-ef9d-47fd-af88-cc844d7fba89" data-name="Path 442" d="M374.3201,632.80477a17.82511,17.82511,0,0,0,15.53141,8.01862c7.8644-.37318,14.41806-5.85973,20.31713-11.07027l17.452-15.4088-11.54987-.5528c-8.3062-.39784-16.82672-.771-24.73814,1.79338s-15.20757,8.72638-16.654,16.9154" transform="translate(-261.5 -239.27794)" fill="#e5e5e5"/>
  <path id="be0f511b-71c0-458c-8c37-97c17312c758" data-name="Path 443" d="M357.99609,658.66091c7.83972-13.87142,16.93234-29.28794,33.1808-34.21552a37.02588,37.02588,0,0,1,13.95545-1.441c1.48189.128,1.11179,2.41174-.367,2.28453a34.39833,34.39833,0,0,0-22.27164,5.89215c-6.27994,4.27454-11.16975,10.21756-15.30781,16.51907-2.53511,3.86051-4.80577,7.88445-7.07642,11.903C359.38391,660.88761,357.26208,659.96008,357.99609,658.66091Z" transform="translate(-261.5 -239.27794)" fill="#000000"/>
  <path d="M 1186.653 660.711 L 556.5 660.711 C 555.73 660.711 555.249 659.877 555.634 659.211 C 555.813 658.901 556.143 658.711 556.5 658.711 L 1186.653 658.711 C 1187.423 658.711 1187.904 659.544 1187.519 660.211 C 1187.34 660.52 1187.01 660.711 1186.653 660.711 Z" fill="#3f3d56" transform="translate(-261.5 -239.27794)"/>
  <path d="M452.5,660.71075h-190a1,1,0,0,1,0-2h190a1,1,0,0,1,0,2Z" transform="translate(-261.5 -239.27794)" fill="#3f3d56"/>
</svg>